<?xml version='1.0' encoding='utf-8'?>
<svg xmlns="http://www.w3.org/2000/svg" width="91.44mm" height="91.44mm" version="1.1" style="shape-rendering:geometricPrecision; text-rendering:geometricPrecision; image-rendering:optimizeQuality; fill-rule:evenodd; clip-rule:evenodd" viewBox="0 0 9144 9144"> <defs> <style type="text/css">  .fil0 {fill:#F0F0F0} .fil1 {fill:#011627;fill-rule:nonzero}  </style> </defs> <g id="Layer_x0020_1"> <metadata id="CorelCorpID_0Corel-Layer"/> <g id="_2744577866736"> <polygon class="fil0" points="0,0 9144,0 9144,9144 0,9144 "/> <path class="fil1" d="M5115 2985c-294,-294 -679,-441 -1065,-441 -385,0 -771,147 -1065,441 -294,294 -441,680 -441,1065 0,386 147,771 441,1065 294,295 680,442 1065,442 386,0 771,-147 1065,-442 295,-294 442,-679 442,-1065 0,-385 -147,-771 -442,-1065zm-1687 2104c-20,-16 -32,-41 -32,-68 0,-49 39,-88 88,-88 32,0 46,10 58,21 20,16 32,41 32,68 0,49 -39,88 -88,88 -32,0 -46,-10 -58,-21zm-111 -306c35,34 34,90 0,124 -34,35 -90,34 -124,0 -237,-237 -355,-547 -355,-857 0,-310 118,-620 355,-857 34,-34 90,-35 124,0 34,34 35,90 0,124 -201,202 -302,468 -302,733 0,265 101,531 302,733zm2956 1781l291 -291 -823 -823 -291 291 823 823zm478 -229l-416 416c-34,34 -90,34 -125,0l-947 -947c-34,-35 -34,-91 0,-125l146 -146 -233 -232c-319,288 -723,432 -1126,432 -430,0 -861,-164 -1190,-493 -328,-328 -493,-759 -493,-1190 0,-430 165,-861 493,-1190 329,-328 760,-493 1190,-493 431,0 862,165 1190,493 329,329 493,760 493,1190 0,403 -144,807 -432,1126l232 233 146 -146c35,-35 90,-35 125,0l947 947c35,35 35,90 0,125z"/> </g> </g> </svg>